# xmcd
#
# Track frame offsets: 
#        150
#        9992
#        23617
#        40271
#        54809
#        69603
#        86372
#        100923
#        120774
#        139714
#        154337
#        173639
#        191050
#        212026
#        230357
#        244054
#        259443
#        281007
#        302833
#
# Disc length: 4260 seconds
#
# Revision: 1
# Processed by: cddbd v1.5.2PL0 Copyright (c) Steve Scherf et al.
# Submitted via: ExactAudioCopy v0.99pb5
#
DISCID=f810a213
DTITLE=Various Artist - ''Старая пластинка. Выпуск 2''.
DYEAR=2009
DGENRE=Retro
TTITLE0=''Комарово''. - Скляр Игорь
TTITLE1=''Живи родник''. - Беликов Сергей
TTITLE2=''Бологое''. - ''Весёлые ребята''
TTITLE3=''Рыжий конь''. - Боярский Михаил
TTITLE4=''Капля в море''. - Легоступова Валентина
TTITLE5='''Незабудка''. - Суручану Ион
TTITLE6=''Переулочки Арбата''. - Антонов Юрий
TTITLE7=''Айсберг''. - Пугачёва Алла
TTITLE8=''Генералы песчаных карьеров''. - ''Несчастный случай''
TTITLE9=''Мы желаем счастья Вам''. - гр. Стаса Намина
TTITLE10=''Подмосковные вечера''. - Трошин Владимир
TTITLE11=''Большая медведица''. - Купуро Олег и гр. В.Добрынина
TTITLE12=''Прошлогодние глаза''. - ''Самоцветы''
TTITLE13=''Я к тебе не подойду''. - ''Весёлые ребята''
TTITLE14=''Песенка про сапожника''. - ''Лейся, песня''
TTITLE15=''В краю магнолий''. - ''Ариэль''
TTITLE16=''Александрина''. - ''Песняры''
TTITLE17=''Сады цветут''. - Герман Анна
TTITLE18=''Поворот''. - ''Машина времени''
EXTD=
EXTT0=
EXTT1=
EXTT2=
EXTT3=
EXTT4=
EXTT5=
EXTT6=
EXTT7=
EXTT8=
EXTT9=
EXTT10=
EXTT11=
EXTT12=
EXTT13=
EXTT14=
EXTT15=
EXTT16=
EXTT17=
EXTT18=
PLAYORDER=
